<?xml version="1.0" encoding="utf-8"?>
<!-- Generator: Adobe Illustrator 21.1.0, SVG Export Plug-In . SVG Version: 6.00 Build 0)  -->
<svg version="1.1" id="Layer_1" xmlns="http://www.w3.org/2000/svg" xmlns:xlink="http://www.w3.org/1999/xlink" x="0px" y="0px"
	 viewBox="0 0 259.4 259.5" style="enable-background:new 0 0 259.4 259.5;" xml:space="preserve">
<style type="text/css">
	.st0{fill:#FFFFFF;}
</style>
<g>
	<path class="st0" d="M126.9,75.2h-17.8V57.4c0-1.8-1.5-3.2-3.2-3.2H78.4c-1.8,0-3.2,1.4-3.2,3.2v17.8H57.4c-1.8,0-3.2,1.4-3.2,3.2
		v27.5c0,1.8,1.5,3.2,3.2,3.2h17.8V127c0,1.8,1.5,3.2,3.2,3.2h27.5c1.8,0,3.2-1.5,3.2-3.2v-17.8h17.8c1.8,0,3.2-1.5,3.2-3.2V78.5
		C130.2,76.7,128.7,75.2,126.9,75.2z M123.7,102.7h-17.8c-1.8,0-3.2,1.5-3.2,3.2v17.8h-21v-17.8c0-1.8-1.5-3.2-3.2-3.2H60.6v-21
		h17.8c1.8,0,3.2-1.4,3.2-3.2V60.7h21v17.8c0,1.8,1.5,3.2,3.2,3.2h17.8V102.7z"/>
	<path class="st0" d="M143.8,40.6c-28.5-28.5-74.8-28.5-103.3,0C26.7,54.4,19.1,72.7,19.1,92.2s7.6,37.8,21.4,51.6
		c14.2,14.2,32.9,21.4,51.6,21.4c18.7,0,37.4-7.1,51.6-21.4c13.8-13.8,21.4-32.1,21.4-51.6S157.6,54.4,143.8,40.6z M139.2,139.2
		c-25.9,25.9-68.1,25.9-94.1,0c-12.6-12.6-19.5-29.3-19.5-47c0-17.8,6.9-34.5,19.5-47c13-13,30-19.5,47-19.5c17,0,34.1,6.5,47,19.5
		C165.1,71.1,165.1,113.3,139.2,139.2z"/>
	<path class="st0" d="M252.6,219.5l-59.7-59.7c-3.4-3.4-8.4-4.4-12.7-3.1L168,144.6c24.8-35.9,21.3-85.6-10.7-117.6
		C139.9,9.6,116.8,0,92.2,0S44.4,9.6,27,27C-9,63-9,121.4,27,157.4c18,18,41.6,27,65.2,27c18.3,0,36.7-5.5,52.4-16.3l12.1,12.1
		c-1.3,4.4-0.4,9.3,3.1,12.7l59.7,59.7c4.4,4.4,10.3,6.8,16.6,6.8c6.3,0,12.2-2.4,16.6-6.8c4.4-4.4,6.8-10.3,6.8-16.6
		C259.4,229.8,257,223.9,252.6,219.5z M31.5,152.8C-1.9,119.4-1.9,65,31.5,31.6C47.7,15.4,69.3,6.5,92.2,6.5
		c22.9,0,44.4,8.9,60.6,25.1c33.4,33.4,33.4,87.8,0,121.2C119.3,186.2,65,186.2,31.5,152.8z M149.8,164.2c2.6-2.1,5.1-4.3,7.6-6.8
		c2.4-2.4,4.7-5,6.8-7.6l10.4,10.4l-14.3,14.3L149.8,164.2z M248,248c-3.2,3.2-7.4,4.9-12,4.9c-4.5,0-8.8-1.8-12-4.9l-59.7-59.7
		c-2.4-2.4-2.4-6.4,0-8.8l15.2-15.2c1.2-1.2,2.8-1.8,4.4-1.8c1.6,0,3.2,0.6,4.4,1.8l59.7,59.7c3.2,3.2,4.9,7.4,4.9,12
		S251.2,244.9,248,248z"/>
</g>
</svg>
